<svg xmlns="http://www.w3.org/2000/svg" width="560" height="340" viewBox="0 0 560 340" fill="none">
  <g>
    <path d="M-10 280 C 50 190, 100 170, 150 215 C 190 145, 240 120, 290 190 C 330 130, 385 105, 435 185 C 475 150, 520 165, 540 205 L 540 340 L -10 340 Z"
      fill="#324234" opacity="0.09"/>
    <path d="M-10 300 C 40 240, 90 225, 135 265 C 175 210, 225 195, 265 245 C 305 195, 360 185, 405 245 C 445 210, 495 220, 540 260 L 540 340 L -10 340 Z"
      fill="#324234" opacity="0.15"/>
    <path d="M-10 320 C 30 285, 75 278, 115 305 C 155 270, 200 265, 235 300 C 275 268, 325 262, 360 300 C 405 270, 455 275, 500 305 L 540 315 L 540 340 L -10 340 Z"
      fill="#324234" opacity="0.22"/>
    <path d="M60 235 C 68 218, 82 210, 96 222" stroke="#324234" stroke-width="1.4" opacity="0.18" fill="none"/>
    <path d="M330 210 C 340 192, 356 184, 372 198" stroke="#324234" stroke-width="1.4" opacity="0.18" fill="none"/>
  </g>
</svg>
